<svg xmlns="http://www.w3.org/2000/svg" viewBox="0 0 500 500"><g id="freepik--background-complete--inject-54"><rect x="416.78" y="398.49" width="33.12" height="0.25" style="fill:#ebebeb"></rect><rect x="322.53" y="401.21" width="8.69" height="0.25" style="fill:#ebebeb"></rect><rect x="396.59" y="389.21" width="19.19" height="0.25" style="fill:#ebebeb"></rect><rect x="52.46" y="390.89" width="43.19" height="0.25" style="fill:#ebebeb"></rect><rect x="104.56" y="390.89" width="6.33" height="0.25" style="fill:#ebebeb"></rect><rect x="131.47" y="395.11" width="93.68" height="0.25" style="fill:#ebebeb"></rect><path d="M238.4,337.8H45.3a5.71,5.71,0,0,1-5.71-5.71V60.66A5.71,5.71,0,0,1,45.3,55H238.4a5.71,5.71,0,0,1,5.71,5.71V332.09A5.71,5.71,0,0,1,238.4,337.8ZM45.3,55.2a5.47,5.47,0,0,0-5.46,5.46V332.09a5.47,5.47,0,0,0,5.46,5.46H238.4a5.47,5.47,0,0,0,5.46-5.46V60.66a5.47,5.47,0,0,0-5.46-5.46Z" style="fill:#ebebeb"></path><path d="M454.7,337.8H261.6a5.71,5.71,0,0,1-5.71-5.71V60.66A5.71,5.71,0,0,1,261.6,55H454.7a5.71,5.71,0,0,1,5.71,5.71V332.09A5.71,5.71,0,0,1,454.7,337.8ZM261.6,55.2a5.47,5.47,0,0,0-5.46,5.46V332.09a5.47,5.47,0,0,0,5.46,5.46H454.7a5.47,5.47,0,0,0,5.46-5.46V60.66a5.47,5.47,0,0,0-5.46-5.46Z" style="fill:#ebebeb"></path><rect y="382.4" width="500" height="0.25" style="fill:#ebebeb"></rect><path d="M293.49,264c-.74,2.06-.62,3.72.29,3.72s2.23-1.66,3-3.72.62-3.71-.28-3.71S294.24,261.92,293.49,264Z" style="fill:#ebebeb"></path><path d="M311.52,275.79c-.75,2-.62,3.72.28,3.72s2.24-1.67,3-3.72.62-3.71-.28-3.71S312.26,273.74,311.52,275.79Z" style="fill:#ebebeb"></path><path d="M277.62,196.26c.75-2,.62-3.71-.28-3.71s-2.24,1.66-3,3.71-.62,3.72.28,3.72S276.88,198.31,277.62,196.26Z" style="fill:#ebebeb"></path><path d="M271,242.51c.74-2,.62-3.71-.29-3.71s-2.24,1.66-3,3.71-.62,3.71.28,3.71S270.25,244.56,271,242.51Z" style="fill:#ebebeb"></path><path d="M308.63,188.84c.75-2.05.62-3.71-.28-3.71s-2.24,1.66-3,3.71-.62,3.71.29,3.71S307.88,190.89,308.63,188.84Z" style="fill:#ebebeb"></path><path d="M292.84,206.08c-1,2.87-.87,5.2.4,5.2s3.13-2.33,4.17-5.2.87-5.19-.39-5.19S293.89,203.21,292.84,206.08Z" style="fill:#ebebeb"></path><path d="M375.23,275.79c-.75,2.09-.62,3.77.29,3.77s2.27-1.68,3-3.77.63-3.76-.29-3.76S376,273.71,375.23,275.79Z" style="fill:#ebebeb"></path><ellipse cx="414.62" cy="265.65" rx="4.06" ry="1.54" transform="translate(5.19 539.22) rotate(-66.4)" style="fill:#ebebeb"></ellipse><path d="M439.63,242.69c-.75,2.05-.62,3.71.28,3.71s2.24-1.66,3-3.71.62-3.71-.29-3.71S440.38,240.64,439.63,242.69Z" style="fill:#ebebeb"></path><path d="M393.05,260.26c-.37,1-.31,1.86.14,1.86s1.12-.83,1.49-1.86.31-1.85-.14-1.85S393.42,259.24,393.05,260.26Z" style="fill:#ebebeb"></path><path d="M365.37,258.81c-.38,1-.31,1.85.14,1.85s1.12-.83,1.49-1.85.31-1.86-.14-1.86S365.74,257.78,365.37,258.81Z" style="fill:#ebebeb"></path><path d="M432.52,307.81c-.37,1-.31,1.85.14,1.85s1.12-.83,1.5-1.85.31-1.86-.14-1.86S432.9,306.78,432.52,307.81Z" style="fill:#ebebeb"></path><path d="M374.78,237.12c.75-2.05.62-3.72-.28-3.72s-2.24,1.67-3,3.72-.62,3.71.28,3.71S374,239.17,374.78,237.12Z" style="fill:#ebebeb"></path><path d="M381,207.62c.74-2.05.62-3.71-.29-3.71s-2.23,1.66-3,3.71-.62,3.72.28,3.72S380.29,209.67,381,207.62Z" style="fill:#ebebeb"></path><path d="M432.4,280.5c.75-2.06.62-3.72-.28-3.72s-2.24,1.66-3,3.72-.62,3.71.28,3.71S431.66,282.55,432.4,280.5Z" style="fill:#ebebeb"></path><path d="M404.68,311c.75-2.05.62-3.71-.28-3.71s-2.24,1.66-3,3.71-.62,3.71.29,3.71S403.94,313.09,404.68,311Z" style="fill:#ebebeb"></path><path d="M384,296.23c.75-2.05.62-3.71-.28-3.71s-2.24,1.66-3,3.71-.62,3.71.28,3.71S383.26,298.28,384,296.23Z" style="fill:#ebebeb"></path><path d="M322.5,176.33c-.75,2-.62,3.71.28,3.71s2.24-1.66,3-3.71.62-3.71-.28-3.71S323.24,174.28,322.5,176.33Z" style="fill:#ebebeb"></path><path d="M306.56,249.18c-1.31,3.6-1.09,6.52.49,6.52s3.93-2.92,5.25-6.52,1.08-6.52-.5-6.52S307.87,245.58,306.56,249.18Z" style="fill:#ebebeb"></path><path d="M302.52,218.5c-.37,1-.31,1.85.14,1.85s1.12-.83,1.5-1.85.31-1.86-.14-1.86S302.9,217.47,302.52,218.5Z" style="fill:#ebebeb"></path><path d="M332.76,133.18c-.38,1-.31,1.86.14,1.86s1.12-.83,1.49-1.86.31-1.85-.14-1.85S333.13,132.16,332.76,133.18Z" style="fill:#ebebeb"></path><path d="M362.81,189.39c.74-2,.62-3.71-.28-3.71s-2.24,1.66-3,3.71-.62,3.71.28,3.71S362.06,191.44,362.81,189.39Z" style="fill:#ebebeb"></path><path d="M364,220.75c.75-2.05.62-3.71-.28-3.71s-2.24,1.66-3,3.71-.62,3.71.28,3.71S363.28,222.8,364,220.75Z" style="fill:#ebebeb"></path><path d="M419.25,155.24c.75-2.05.62-3.72-.28-3.72s-2.24,1.67-3,3.72-.62,3.71.29,3.71S418.5,157.29,419.25,155.24Z" style="fill:#ebebeb"></path><path d="M384.66,117.66c1-2.87.86-5.19-.4-5.19s-3.13,2.32-4.18,5.19-.86,5.2.4,5.2S383.61,120.53,384.66,117.66Z" style="fill:#ebebeb"></path><path d="M404.68,204.24c.75-2.05.62-3.71-.28-3.71s-2.24,1.66-3,3.71-.62,3.71.29,3.71S403.94,206.29,404.68,204.24Z" style="fill:#ebebeb"></path><path d="M406.94,237.49c.75-2.05.62-3.71-.28-3.71s-2.24,1.66-3,3.71-.62,3.71.29,3.71S406.19,239.54,406.94,237.49Z" style="fill:#ebebeb"></path><path d="M390,181.9c.74-2.05.62-3.72-.28-3.72s-2.24,1.67-3,3.72-.62,3.71.28,3.71S389.28,184,390,181.9Z" style="fill:#ebebeb"></path><path d="M440.7,170.49c.75-2.05.62-3.72-.28-3.72s-2.24,1.67-3,3.72-.62,3.71.29,3.71S440,172.54,440.7,170.49Z" style="fill:#ebebeb"></path><path d="M442.9,192.55c.74-2.05.62-3.71-.29-3.71s-2.24,1.66-3,3.71-.62,3.71.28,3.71S442.15,194.6,442.9,192.55Z" style="fill:#ebebeb"></path><path d="M332.82,261.93c-.74,2.05-.62,3.72.29,3.72s2.23-1.67,3-3.72.62-3.71-.28-3.71S333.57,259.88,332.82,261.93Z" style="fill:#ebebeb"></path><path d="M417.45,184.79c-1,2.87-.87,5.2.4,5.2s3.13-2.33,4.17-5.2.87-5.19-.39-5.19S418.5,181.93,417.45,184.79Z" style="fill:#ebebeb"></path><path d="M425.52,218.5c-1,2.87-.87,5.19.39,5.19s3.14-2.32,4.18-5.19.87-5.2-.4-5.2S426.56,215.63,425.52,218.5Z" style="fill:#ebebeb"></path><path d="M335.13,193.46c.75-2.05.62-3.71-.28-3.71s-2.24,1.66-3,3.71-.62,3.71.29,3.71S334.38,195.51,335.13,193.46Z" style="fill:#ebebeb"></path><path d="M359.78,168.82c-1,2.87-.87,5.19.39,5.19s3.14-2.32,4.18-5.19.87-5.19-.4-5.19S360.82,166,359.78,168.82Z" style="fill:#ebebeb"></path><path d="M336.27,231.88c-.37,1-.31,1.85.14,1.85s1.12-.83,1.49-1.85.31-1.86-.14-1.86S336.64,230.85,336.27,231.88Z" style="fill:#ebebeb"></path><path d="M405.26,289.81c.95-2.6.79-4.71-.36-4.71s-2.84,2.11-3.79,4.71-.78,4.71.36,4.71S404.31,292.41,405.26,289.81Z" style="fill:#ebebeb"></path><path d="M388.46,149.67c.37-1,.31-1.86-.14-1.86s-1.12.83-1.49,1.86-.31,1.85.14,1.85S388.09,150.69,388.46,149.67Z" style="fill:#ebebeb"></path><path d="M306,164.32c.75-2,.62-3.71-.28-3.71s-2.24,1.66-3,3.71-.62,3.72.28,3.72S305.29,166.37,306,164.32Z" style="fill:#ebebeb"></path><path d="M360.78,114.06c.75-2,.62-3.72-.28-3.72s-2.24,1.67-3,3.72-.62,3.71.28,3.71S360,116.11,360.78,114.06Z" style="fill:#ebebeb"></path><path d="M346.22,163.06c.74-2.05.62-3.71-.29-3.71s-2.24,1.66-3,3.71-.62,3.71.28,3.71S345.47,165.11,346.22,163.06Z" style="fill:#ebebeb"></path><path d="M331.87,235.25c.75-2.05.62-3.72-.28-3.72s-2.24,1.67-3,3.72-.62,3.71.29,3.71S331.12,237.3,331.87,235.25Z" style="fill:#ebebeb"></path><path d="M440.7,148.57c.75-2,.62-3.71-.28-3.71s-2.24,1.66-3,3.71-.62,3.71.29,3.71S440,150.62,440.7,148.57Z" style="fill:#ebebeb"></path><path d="M394.23,163.63c.74-2,.62-3.72-.29-3.72s-2.23,1.67-3,3.72-.62,3.71.28,3.71S393.48,165.68,394.23,163.63Z" style="fill:#ebebeb"></path><path d="M274.36,220.75c-.75,2.05-.62,3.71.28,3.71s2.24-1.66,3-3.71.62-3.71-.28-3.71S275.1,218.7,274.36,220.75Z" style="fill:#ebebeb"></path><path d="M370.86,138.42c-1,2.87-.86,5.19.4,5.19s3.13-2.32,4.17-5.19.87-5.19-.39-5.19S371.91,135.55,370.86,138.42Z" style="fill:#ebebeb"></path><path d="M286.21,152.28c.74-2.05.62-3.71-.28-3.71s-2.24,1.66-3,3.71-.62,3.71.28,3.71S285.46,154.33,286.21,152.28Z" style="fill:#ebebeb"></path><path d="M301.31,127.64c-1,2.87-.87,5.19.4,5.19s3.13-2.32,4.17-5.19.87-5.19-.39-5.19S302.36,124.77,301.31,127.64Z" style="fill:#ebebeb"></path><path d="M283.76,178.18c-.38,1-.31,1.86.14,1.86s1.12-.83,1.49-1.86.31-1.85-.14-1.85S284.13,177.16,283.76,178.18Z" style="fill:#ebebeb"></path><path d="M351.59,246.93c.89-2.44.74-4.42-.34-4.42s-2.67,2-3.56,4.42-.74,4.43.34,4.43S350.7,249.38,351.59,246.93Z" style="fill:#ebebeb"></path><path d="M330,108.49c.38-1,.31-1.86-.14-1.86s-1.12.83-1.49,1.86-.31,1.85.14,1.85S329.62,109.51,330,108.49Z" style="fill:#ebebeb"></path><polygon points="256.75 303.93 261.32 299.68 212.42 239.89 185.67 239.89 148.57 195.66 102.25 195.66 58.14 144.61 90.42 144.61 125.03 188.03 160.16 188.03 194.69 232.25 226.54 232.25 272.56 291.49 277.12 287.24 280.95 310.86 256.75 303.93" style="fill:#ebebeb"></polygon><path d="M426.14,143.93c6.6-1.93,10.42-9.88,9.54-16.7s-7-12.69-13.84-13.72c.23-2.75,1.16-4.58,1.17-7.34a35,35,0,0,0-16.74-29.62c-10.2-6.07-26.51-6.41-34-.62a32.42,32.42,0,0,0-9,11.41,26.72,26.72,0,0,0-26.89.3c-8,4.93-12.65,14.91-12.08,24.31-6.86-2.1-14.66-1.58-20.75,2.21s-10.08,11.06-9.18,18.18,5.38,12.08,14.34,13.56C308.72,145.9,362.06,162.62,426.14,143.93Z" style="fill:#ebebeb"></path></g><g id="freepik--Shadow--inject-54"><ellipse id="freepik--path--inject-54" cx="245.18" cy="412.39" rx="193.89" ry="11.32" style="fill:#f5f5f5"></ellipse></g><g id="freepik--Bars--inject-54"><rect x="314.44" y="395.46" width="31.98" height="15.99" transform="translate(660.85 806.91) rotate(180)" style="fill:#407BFF"></rect><rect x="314.44" y="395.46" width="31.98" height="15.99" transform="translate(660.85 806.91) rotate(180)" style="fill:#fff;opacity:0.30000000000000004"></rect><rect x="310.44" y="399.46" width="15.99" height="8" transform="translate(721.89 85.02) rotate(90)" style="opacity:0.2"></rect><rect x="250.47" y="337.18" width="31.98" height="74.27" style="fill:#407BFF"></rect><rect x="250.47" y="337.18" width="31.98" height="74.27" style="fill:#fff;opacity:0.4"></rect><rect x="217.33" y="370.32" width="74.27" height="8" transform="translate(628.78 119.84) rotate(90)" style="opacity:0.2"></rect><rect x="186.51" y="285.26" width="31.98" height="126.2" style="fill:#407BFF"></rect><rect x="186.51" y="285.26" width="31.98" height="126.2" style="fill:#fff;opacity:0.30000000000000004"></rect><rect x="127.41" y="344.36" width="126.2" height="8" transform="translate(538.86 157.85) rotate(90)" style="opacity:0.2"></rect><rect x="122.55" y="221.35" width="31.98" height="190.1" style="fill:#407BFF"></rect><rect x="122.55" y="221.35" width="31.98" height="190.1" style="fill:#fff;opacity:0.2"></rect><rect x="31.49" y="312.4" width="190.1" height="8" transform="translate(442.95 189.86) rotate(90)" style="opacity:0.2"></rect><rect x="58.58" y="144.21" width="31.98" height="267.24" style="fill:#407BFF"></rect><rect x="-71.04" y="273.84" width="267.24" height="8" transform="translate(340.41 215.25) rotate(90)" style="opacity:0.2"></rect></g><g id="freepik--Character--inject-54"><path d="M373.65,319.57a6,6,0,0,1-4.07,8.23h0c-6.13,2.42-12.67-4.38-12.67-4.38l-11.44-12.77c-2.72-.71-4.12-5.85-3.41-8.58a5.09,5.09,0,0,1,6.21-3.66l14.36,16.8-5-20.17,4.94-1.28Z" style="fill:#407BFF"></path><g style="opacity:0.6000000000000001"><path d="M373.65,319.57a6,6,0,0,1-4.07,8.23h0c-6.13,2.42-12.67-4.38-12.67-4.38l-11.44-12.77c-2.72-.71-4.12-5.85-3.41-8.58a5.09,5.09,0,0,1,6.21-3.66l14.36,16.8-5-20.17,4.94-1.28Z" style="fill:#fff"></path></g><path d="M357.65,295h0a15.46,15.46,0,0,1,2.79-9.47l2.21-3.17,3.22,4.42-3.47,7Z" style="fill:#ffc3bd"></path><path d="M361.83,284.21l-.83-3.4,2.73-2.23s3.5,6.28,2.14,8.24C363.09,290.8,361.83,284.21,361.83,284.21Z" style="fill:#ffc3bd"></path><path d="M349.09,309c0-.44,5.27,11.61,5.27,11.61L344.87,310Z" style="isolation:isolate;opacity:0.2"></path><path d="M346.19,297.61s9.63-4.24-2.32,42.56c-1.05,4.09,2.17,8.6,1.4,13.63-2.13,13.71-23.59,24.85-33.12,24.69-5.1-.08-1-5-3.14-5-.15-5.57-7.93-29.81-1.57-66.26,1.26-7.21,4.47-13.83,11.8-14.09h.2c5.35-.17,10.06,1.62,14.76,2.13A77.48,77.48,0,0,1,346.19,297.61Z" style="fill:#407BFF"></path><path d="M346.19,297.61s9.63-4.24-2.32,42.56c-1.05,4.09,2.17,8.6,1.4,13.63-2.13,13.71-23.59,24.85-33.12,24.69-5.1-.08-1-5-3.14-5-.15-5.57-7.93-29.81-1.57-66.26,1.26-7.21,4.47-13.83,11.8-14.09h.2c5.35-.17,10.06,1.62,14.76,2.13A77.48,77.48,0,0,1,346.19,297.61Z" style="fill:#fff;opacity:0.6000000000000001"></path><path d="M411.46,389.35,399.29,391l-18-40.45c-6.71,11.31-14.94,19.85-24.41,31.41-15.57,19-28.7,14.86-36.23,7.66-4.24-4-4.15-24.71-4.15-24.71l25.36-12.6s34.21-28.72,44.36-28.26l0,0C396.88,319.14,411.46,389.35,411.46,389.35Z" style="fill:#263238"></path><g style="opacity:0.2"><path d="M411.46,389.35,399.29,391l-18-40.45c-6.71,11.31-14.94,19.85-24.41,31.41-15.57,19-28.7,14.86-36.23,7.66-4.24-4-4.15-24.71-4.15-24.71l25.36-12.6s34.21-28.72,44.36-28.26l0,0C396.88,319.14,411.46,389.35,411.46,389.35Z"></path></g><polygon points="408.63 388.1 408.64 388.14 411.87 401.05 404.73 403.31 402.32 395.98 400.58 390.65 400.57 390.64 408.63 388.1" style="fill:#ffc3bd"></polygon><path d="M413,399.53l-9.59-.17a.71.71,0,0,0-.73.58l-1.61,7.78a1.34,1.34,0,0,0,1.29,1.59c3.46,0,8.46-.11,12.81,0,5.08.09,5.1.37,11.06.48,3.61.06,4.54-3.56,3-3.92-6.9-1.63-8.13-1.81-14.13-5.58A4.25,4.25,0,0,0,413,399.53Z" style="fill:#263238"></path><path d="M416.65,401.07c1.13,0,2.22-.12,2.57-.62a.78.78,0,0,0,0-.91,1.12,1.12,0,0,0-.67-.5c-1.47-.42-4.51,1.27-4.63,1.34a.2.2,0,0,0-.1.22.21.21,0,0,0,.17.17A15.64,15.64,0,0,0,416.65,401.07Zm1.37-1.68a1.68,1.68,0,0,1,.4.05.69.69,0,0,1,.41.3c.15.26.1.39.05.46-.4.56-2.62.53-4.26.27A9.17,9.17,0,0,1,418,399.39Z" style="fill:#407BFF"></path><path d="M414,400.77a.12.12,0,0,0,.08,0c1.05-.46,3.12-2.32,2.94-3.32,0-.23-.21-.52-.78-.59a1.5,1.5,0,0,0-1.15.33c-1.1.9-1.3,3.26-1.3,3.36a.19.19,0,0,0,.08.19A.2.2,0,0,0,414,400.77Zm2.08-3.52h.12c.38.05.4.19.41.24.11.6-1.29,2.07-2.36,2.7a4.73,4.73,0,0,1,1.11-2.69A1.08,1.08,0,0,1,416.08,397.25Z" style="fill:#407BFF"></path><polygon points="408.63 388.11 408.64 388.14 410.15 393.95 402.32 395.98 400.58 390.65 408.63 388.11" style="opacity:0.2"></polygon><path d="M412.5,383.93c.2,2.66.36,6.62.36,6.62L398,394l-2.12-6.22Z" style="fill:#263238"></path><path d="M412.5,383.93c.2,2.66.36,6.62.36,6.62L398,394l-2.12-6.22Z" style="fill:#fff;opacity:0.2"></path><polygon points="403.49 389.43 402.42 390.26 406.21 403.25 398.68 405.21 393.87 391.93 403.49 389.43" style="fill:#ffc3bd"></polygon><path d="M407.17,401.38l-9.59,0a.73.73,0,0,0-.73.6l-1.48,7.8a1.34,1.34,0,0,0,1.31,1.57c3.46-.05,8.45-.24,12.8-.23,5.09,0,5.11.29,11.07.31,3.61,0,4.49-3.64,3-4-6.92-1.52-8.16-1.69-14.21-5.36A4.17,4.17,0,0,0,407.17,401.38Z" style="fill:#263238"></path><path d="M410.8,402.85c1.13,0,2.21-.15,2.56-.65a.79.79,0,0,0-.05-.91,1.07,1.07,0,0,0-.67-.49c-1.48-.4-4.49,1.34-4.62,1.42a.19.19,0,0,0-.09.21.21.21,0,0,0,.17.17A15.6,15.6,0,0,0,410.8,402.85Zm1.34-1.7a1.68,1.68,0,0,1,.4.05.7.7,0,0,1,.42.29c.15.26.11.39.05.46-.39.57-2.61.58-4.25.34A9.26,9.26,0,0,1,412.14,401.15Z" style="fill:#407BFF"></path><path d="M408.14,402.6h.08c1-.48,3.09-2.37,2.89-3.36,0-.24-.22-.53-.79-.59a1.48,1.48,0,0,0-1.14.36c-1.09.91-1.25,3.28-1.25,3.38a.22.22,0,0,0,.09.19A.24.24,0,0,0,408.14,402.6Zm2-3.55h.12c.38,0,.41.18.41.23.12.6-1.26,2.09-2.32,2.73a4.72,4.72,0,0,1,1.07-2.7A1.09,1.09,0,0,1,410.17,399.05Z" style="fill:#407BFF"></path><polygon points="402.4 389.72 403.93 395.43 395.89 397.52 393.87 391.93 402.4 389.72" style="opacity:0.2"></polygon><path d="M406.56,385.81c.28,2.65.53,6.61.53,6.61l-14.74,3.83-2.27-6.16Z" style="fill:#263238"></path><path d="M406.56,385.81c.28,2.65.53,6.61.53,6.61l-14.74,3.83-2.27-6.16Z" style="fill:#fff;opacity:0.30000000000000004"></path><path d="M338.18,315.05c-.17,6.81-.28,20.63-3.32,29.11C334.34,345.6,336,352,336,352a37.65,37.65,0,0,0,4-6.17c1.88-5,1.33-9,1.58-12.16.54-6.87-.45-10.64-1.55-19.32C339.76,314.86,338.62,315.41,338.18,315.05Z" style="fill:#263238"></path><path d="M405.22,387.94l-13.05,3.12-18.78-41.89c-6.07,8.41-16,22.15-24.2,33.62-14.3,20-35.41,15.81-39,2A105.94,105.94,0,0,1,307,363.59l25.56-7.23s30.28-33,46.74-32.58C390.63,319.55,405.22,387.94,405.22,387.94Z" style="fill:#263238"></path><path d="M332.53,356.36s-13.8,15.1-14.09,10.32S332.53,356.36,332.53,356.36Z" style="opacity:0.2"></path><path d="M339.71,315.13a8.4,8.4,0,0,0,.49-1.22c.08-.59.72-7.33.72-7.33-.26-.31-.59-.37-.85-.68-.19.45-.6,6.46-.89,6.85-.26,0-.48,0-.74,0-.67-1.59-4-7.52-4-7.91-.45,0-.7.77-.89,1.17.44.61,3.55,7.72,4.61,9.19A3.54,3.54,0,0,0,339.71,315.13Z" style="fill:#263238"></path><path d="M325.21,295.69a6.37,6.37,0,0,0-.76,4.55c.27,1.55,2,4.73,2.66,6.17.81,1.82,2.86,6.2,6.44,7.78,1.68.74,4.33-1.72,4.87-4.81a18.71,18.71,0,0,0,3.1,4.05c1.52.54,1.15-12.31-.81-14.87C336.4,293,327,292.91,325.21,295.69Z" style="fill:#407BFF"></path><path d="M325.21,295.69a6.37,6.37,0,0,0-.76,4.55c.27,1.55,2,4.73,2.66,6.17.81,1.82,2.86,6.2,6.44,7.78,1.68.74,4.33-1.72,4.87-4.81a18.71,18.71,0,0,0,3.1,4.05c1.52.54,1.15-12.31-.81-14.87C336.4,293,327,292.91,325.21,295.69Z" style="fill:#fff;opacity:0.8"></path><path d="M338.32,284.66l1.8,5.75,2.45,7.83a7,7,0,0,0-1.89,1.57,3.81,3.81,0,0,0-.53,5c.6.68-.73,4.76-5.49,2.2a11.15,11.15,0,0,1-6-6.64c-.38-1.61-.33-2.37,1.18-3.29C334.16,294.46,336.74,289.11,338.32,284.66Z" style="fill:#ffc3bd"></path><path d="M342,296.32l-1.32-5.46-.29.34a12.78,12.78,0,0,0-1.08,1.63c-1.07,1.95-.29,5.39,1.09,7.32l.32-.34a8.51,8.51,0,0,1,1.75-1.53l.13,0Z" style="isolation:isolate;opacity:0.2"></path><path d="M350.84,289.09c5.68-4.34,6.59-7.89,10.88-9.61,1.84,0,3.17,4.12-.87,8.06S350.84,289.09,350.84,289.09Z" style="fill:#263238"></path><path d="M354.22,296.41a10.25,10.25,0,0,1-2.26,1.72c-5.44,3.11-12.93.92-14.55-5.78a14.65,14.65,0,0,1-.27-1.54c-.46-4.34,1.73-7.87,4.87-13.7a10.24,10.24,0,0,1,17.21-1.54C363.9,281.74,359.05,291.58,354.22,296.41Z" style="fill:#ffc3bd"></path><path d="M354,296.66c-6.6,5.72-14.93,2.39-16.55-4.31a14.65,14.65,0,0,1-.27-1.54c0-.17,0-.33,0-.5.19-2.42.51-4.94,1.87-7a4.68,4.68,0,0,0,.87-.09c.16-.06,1.61.05,1.6.23-.35,3.74,2.79,5.09,5.71,7.08.91.62,2.28,1,3.67,2C350.9,292.6,354,295,354,296.66Z" style="isolation:isolate;opacity:0.2"></path><path d="M338.42,282.65l2.56,1.93,3.52-3.18,2-1.92,7.62-2.57s-6.73-6-8.92-7.4c-.76-.5-4.67.36-5.54,1.1a8.46,8.46,0,0,0-2.51,8.55A18.09,18.09,0,0,0,338.42,282.65Z" style="fill:#263238"></path><path d="M336.48,280.35a6.76,6.76,0,0,0,.21,4.79c.87,1.94,3.25,1.27,4.29-.56.92-1.63,1.15-4.5-.34-5.83S337.13,278.4,336.48,280.35Z" style="fill:#ffc3bd"></path><path d="M350.37,285.56c-.35.5-.37,1.11,0,1.34s.83,0,1.21-.48a1,1,0,0,0,0-1.36C351.24,284.82,350.71,285,350.37,285.56Z" style="fill:#263238"></path><path d="M356,289.63c-.35.51-.37,1.12,0,1.36s.87,0,1.21-.49.36-1.11,0-1.35S356.33,289.13,356,289.63Z" style="fill:#263238"></path><path d="M353.93,288.7a19.85,19.85,0,0,0-.83,5.13,2.92,2.92,0,0,1-2.2-1.23Z" style="fill:#ed847e"></path><path d="M350.36,294.59a5.24,5.24,0,0,0-3.63-2,.17.17,0,0,0-.19.17.19.19,0,0,0,.17.19,5,5,0,0,1,3.75,2.42.19.19,0,0,0,.25.08.17.17,0,0,0,.08-.24v0C350.65,295,350.51,294.78,350.36,294.59Z" style="fill:#263238"></path><path d="M350.48,283a.4.4,0,0,1-.1-.15.37.37,0,0,1,.25-.45,3.44,3.44,0,0,1,3.2.56.34.34,0,0,1,.05.5h0a.36.36,0,0,1-.51,0,2.77,2.77,0,0,0-2.52-.42A.34.34,0,0,1,350.48,283Z" style="fill:#263238"></path><path d="M358.26,286.36a.35.35,0,0,1,.05-.18.36.36,0,0,1,.51-.05,3.43,3.43,0,0,1,1.36,2.95.36.36,0,1,1-.71-.07,2.74,2.74,0,0,0-1.1-2.32A.37.37,0,0,1,358.26,286.36Z" style="fill:#263238"></path><path d="M340.92,271.57c1.92,2.55,8.84,4.55,11.41,6.44a20.81,20.81,0,0,1,4.05,4.42c.31-1.74-.15-2.65-.85-4.27a16.46,16.46,0,0,1,3.37,7.15,8.65,8.65,0,0,0,1-5.68,14.66,14.66,0,0,1,2.53,8.89,17.29,17.29,0,0,0,.4-14.35c-2-4.6-9.23-10.39-14.11-9.18C338.93,267.42,340.92,271.57,340.92,271.57Z" style="fill:#263238"></path><path d="M338.86,336.34C325.62,339.78,309,305,309,305c-2-2.29-.06-7.7,2.23-9.68a5.48,5.48,0,0,1,7.74.55s13.49,28.12,19.83,27.63l26.48-3.21c7.65-1.38,4.37,4.61,1.64,5.92L342.44,335A30.64,30.64,0,0,1,338.86,336.34Z" style="fill:#407BFF"></path><path d="M338.86,336.34C325.62,339.78,309,305,309,305c-2-2.29-.06-7.7,2.23-9.68a5.48,5.48,0,0,1,7.74.55s13.49,28.12,19.83,27.63l26.48-3.21c7.65-1.38,4.37,4.61,1.64,5.92L342.44,335A30.64,30.64,0,0,1,338.86,336.34Z" style="fill:#fff;opacity:0.7000000000000001"></path><path d="M384.87,328.47s-5.5.07-6.57.33l-3-3.6-6.57.11a2.55,2.55,0,0,1-2.22-1.11h0c-.27-1.23.94-3,2.77-3.6.4-.13,11.52,1.07,11.52,1.07C384.29,323.24,384.87,328.47,384.87,328.47Z" style="fill:#ffc3bd"></path></g><g id="freepik--speech-bubble--inject-54"><path d="M313.84,263.6a3,3,0,1,0,3.31-2.66A3,3,0,0,0,313.84,263.6Z" style="fill:#fff"></path><path d="M316.83,267.43l-.39,0a3.52,3.52,0,0,1-3.1-3.87,3.48,3.48,0,0,1,1.29-2.35,3.52,3.52,0,0,1,2.57-.75,3.51,3.51,0,0,1-.37,7Zm0-6a2.45,2.45,0,0,0-1.56.55,2.51,2.51,0,1,0,3.51.39,2.45,2.45,0,0,0-1.67-.92Z" style="fill:#407BFF"></path><path d="M322,271.08a1.72,1.72,0,1,0,1.89-1.51A1.72,1.72,0,0,0,322,271.08Z" style="fill:#fff"></path><path d="M323.73,273.48h-.25a2.19,2.19,0,0,1-1.48-.81,2.23,2.23,0,0,1-.48-1.63h0a2.21,2.21,0,1,1,4.4.48,2.19,2.19,0,0,1-2.19,2Zm-1.21-2.34h0a1.15,1.15,0,0,0,.26.89,1.2,1.2,0,0,0,1.7.19,1.21,1.21,0,0,0-.62-2.15,1.22,1.22,0,0,0-1.34,1.07Z" style="fill:#407BFF"></path><path d="M275.29,209.56a27.4,27.4,0,0,1,50.19-2,21.8,21.8,0,0,1,2.42.07,21.52,21.52,0,1,1-3.74,42.87l-1.05-.12a24.41,24.41,0,0,1-32.54,4,23.71,23.71,0,0,1-4,0,24.43,24.43,0,0,1-11.24-44.78Z" style="fill:#fff"></path><path d="M304.6,259.31c-.71,0-1.42,0-2.14-.1a25,25,0,0,1-12-4.34,26,26,0,0,1-3.95,0,24.93,24.93,0,0,1-11.6-45.61A27.9,27.9,0,0,1,325.79,207a21.49,21.49,0,0,1,2.15.08A22,22,0,0,1,324.12,251l-.81-.08A25.1,25.1,0,0,1,304.6,259.31Zm-13.89-5.47.15.11A23.91,23.91,0,0,0,322.73,250l.18-.21.27,0q.51.08,1,.12a21,21,0,1,0,3.66-41.88,20.51,20.51,0,0,0-2.37-.07h-.32l-.14-.29a26.89,26.89,0,0,0-49.27,2l-.06.15-.14.09a23.93,23.93,0,0,0,15,43.88Z" style="fill:#407BFF"></path><path d="M311.79,233.56a8.31,8.31,0,0,1,1.38-2.07c1.33-1.34,3.33-1.66,5.19-1.91,1.1-.15,6.21-1.69,6.45-2.1a1.07,1.07,0,0,0-.14-1.33s-.09-.08-.1-.13.18-.18.21-.13c.5-.17,1-.25,1.53-.45a1.7,1.7,0,0,0,1.08-1.09c.12-.52.11-1.45-.42-1.43a6.85,6.85,0,0,0,1.36-1.09,2.4,2.4,0,0,0,.63-1,1.07,1.07,0,0,0-.22-1.06,1.11,1.11,0,0,1-.4-.81,2.89,2.89,0,0,0,1.22-1.1,1.54,1.54,0,0,0,0-1.59,1.65,1.65,0,0,0-1.14-.67,2.3,2.3,0,0,0-1.37.19q-2.81,1.36-5.65,2.63a20.8,20.8,0,0,1-6,1.93,9.81,9.81,0,0,0-2.17.33,4,4,0,0,0-2.08,2.07,11.53,11.53,0,0,1-2.68,9.3c0-.12-.06,0,0,.1a2.85,2.85,0,0,0,3.76.91" style="fill:#407BFF"></path><path d="M311.79,233.56a8.31,8.31,0,0,1,1.38-2.07c1.33-1.34,3.33-1.66,5.19-1.91,1.1-.15,6.21-1.69,6.45-2.1a1.07,1.07,0,0,0-.14-1.33s-.09-.08-.1-.13.18-.18.21-.13c.5-.17,1-.25,1.53-.45a1.7,1.7,0,0,0,1.08-1.09c.12-.52.11-1.45-.42-1.43a6.85,6.85,0,0,0,1.36-1.09,2.4,2.4,0,0,0,.63-1,1.07,1.07,0,0,0-.22-1.06,1.11,1.11,0,0,1-.4-.81,2.89,2.89,0,0,0,1.22-1.1,1.54,1.54,0,0,0,0-1.59,1.65,1.65,0,0,0-1.14-.67,2.3,2.3,0,0,0-1.37.19q-2.81,1.36-5.65,2.63a20.8,20.8,0,0,1-6,1.93,9.81,9.81,0,0,0-2.17.33,4,4,0,0,0-2.08,2.07,11.53,11.53,0,0,1-2.68,9.3c0-.12-.06,0,0,.1a2.85,2.85,0,0,0,3.76.91" style="fill:#fff;opacity:0.6000000000000001"></path><path d="M299.28,233.58a9.16,9.16,0,0,0-1.56-1.94c-1.44-1.21-3.47-1.36-5.34-1.44-1.11,0-6.33-1.13-6.61-1.53a1.05,1.05,0,0,1,0-1.33s.09-.09.09-.14-.19-.16-.22-.11c-.51-.13-1.05-.16-1.56-.31a1.74,1.74,0,0,1-1.18-1c-.17-.51-.23-1.44.3-1.47a6.83,6.83,0,0,1-1.46-1,2.41,2.41,0,0,1-.7-.89,1,1,0,0,1,.12-1.07,1.19,1.19,0,0,0,.33-.85,2.91,2.91,0,0,1-1.32-1A1.58,1.58,0,0,1,280,218a1.68,1.68,0,0,1,1.08-.77,2.32,2.32,0,0,1,1.38.07c1.94.74,3.9,1.45,5.86,2.12a20.62,20.62,0,0,0,6.16,1.39,10,10,0,0,1,2.19.14,4,4,0,0,1,2.25,1.88,11.56,11.56,0,0,0,3.49,9c0-.12.07,0,0,.1a2.84,2.84,0,0,1-3.66,1.23" style="fill:#407BFF"></path><path d="M299.28,233.58a9.16,9.16,0,0,0-1.56-1.94c-1.44-1.21-3.47-1.36-5.34-1.44-1.11,0-6.33-1.13-6.61-1.53a1.05,1.05,0,0,1,0-1.33s.09-.09.09-.14-.19-.16-.22-.11c-.51-.13-1.05-.16-1.56-.31a1.74,1.74,0,0,1-1.18-1c-.17-.51-.23-1.44.3-1.47a6.83,6.83,0,0,1-1.46-1,2.41,2.41,0,0,1-.7-.89,1,1,0,0,1,.12-1.07,1.19,1.19,0,0,0,.33-.85,2.91,2.91,0,0,1-1.32-1A1.58,1.58,0,0,1,280,218a1.68,1.68,0,0,1,1.08-.77,2.32,2.32,0,0,1,1.38.07c1.94.74,3.9,1.45,5.86,2.12a20.62,20.62,0,0,0,6.16,1.39,10,10,0,0,1,2.19.14,4,4,0,0,1,2.25,1.88,11.56,11.56,0,0,0,3.49,9c0-.12.07,0,0,.1a2.84,2.84,0,0,1-3.66,1.23" style="fill:#fff;opacity:0.6000000000000001"></path><path d="M298.82,239.11c1.49,3,5.58,4.26,9.14,2.76s5.25-5.15,3.76-8.18-5.58-4.25-9.14-2.76S297.33,236.09,298.82,239.11Z" style="fill:#407BFF"></path><path d="M298.23,237.91c1.48,3,5.58,4.26,9.14,2.76s5.25-5.16,3.76-8.18-5.58-4.26-9.14-2.76S296.74,234.89,298.23,237.91Z" style="fill:#407BFF"></path><path d="M298.23,237.91c1.48,3,5.58,4.26,9.14,2.76s5.25-5.16,3.76-8.18-5.58-4.26-9.14-2.76S296.74,234.89,298.23,237.91Z" style="fill:#fff;opacity:0.4"></path><path d="M299.79,237.13l.23.41s0,0,0,0a5.42,5.42,0,0,0,6.6,1.62c2.5-1,3.77-3.49,3-5.66,0,0,0,0,0,0s-.11-.28-.18-.43c-1.11-2.26-4.19-3.19-6.86-2.07S298.68,234.87,299.79,237.13Z" style="fill:#407BFF"></path><path d="M300,237.54s0,0,0,0a5.42,5.42,0,0,0,6.6,1.62c2.5-1,3.77-3.49,3-5.66,0,0,0,0,0,0a5.44,5.44,0,0,0-6.61-1.62C300.56,232.92,299.29,235.38,300,237.54Z" style="fill:#fff;opacity:0.30000000000000004"></path></g></svg>